<?xml version="1.0" encoding="utf-8"?>
<!-- Generator: Adobe Illustrator 16.0.0, SVG Export Plug-In . SVG Version: 6.00 Build 0)  -->
<!DOCTYPE svg PUBLIC "-//W3C//DTD SVG 1.1//EN" "http://www.w3.org/Graphics/SVG/1.1/DTD/svg11.dtd">
<svg version="1.1" id="Layer_1" xmlns="http://www.w3.org/2000/svg" xmlns:xlink="http://www.w3.org/1999/xlink" x="0px" y="0px"
	 width="1200px" height="1500px" viewBox="0 0 1200 1500" enable-background="new 0 0 1200 1500" xml:space="preserve">
<g id="XMLID_11_">
	<g>
		<path d="M881.314,342.51c2.56,2.17,3.619,4.41,3.149,6.68c-0.89,4.3-7.04,6.16-10.34,7.17c-7.01,2.12-14.24,3.76-21.24,5.34
			l-2.72,0.62c-16.83,3.82-33.81,8.08-50.22,12.19l-9.34,2.35l-1.221-4.86l9.34-2.34c16.44-4.12,33.44-8.38,50.33-12.22l2.73-0.62
			c6.91-1.56,14.05-3.17,20.89-5.25c6.13-1.86,6.82-3.06,6.891-3.39c0,0-0.011-0.61-1.48-1.85
			c-15.729-13.29-36.63-19.85-56.85-26.18c-12.48-3.92-25.38-7.96-36.91-13.55l2.18-4.5c11.2,5.43,23.92,9.42,36.22,13.27
			C843.414,321.86,864.814,328.57,881.314,342.51z"/>
		<polygon points="840.084,805.77 835.194,806.81 826.664,766.699 831.564,765.659 		"/>
		<path d="M835.294,807.359l2.19-0.47l1.04,4.89l-3.25,0.69C835.584,810.819,835.604,809.1,835.294,807.359z"/>
		<polygon points="834.324,749.79 831.884,750.459 830.844,748.149 833.284,747.479 		"/>
		<polygon points="831.884,750.459 829.444,751.12 828.404,748.81 830.844,748.149 		"/>
		<polygon points="830.844,748.149 829.804,745.84 832.244,745.18 833.284,747.479 		"/>
		<polygon points="828.404,748.81 827.364,746.51 829.804,745.84 830.844,748.149 		"/>
		<rect x="826.095" y="761.23" transform="matrix(-0.208 -0.9781 0.9781 -0.208 253.9589 1733.0913)" width="4.999" height="5.01"/>
		<path d="M835.194,806.81l4.89-1.04c2.26,10.61-4.54,21.08-15.15,23.33l-1.039-4.89c5.989-1.271,10.35-6.051,11.38-11.74l3.25-0.69
			l-1.04-4.89l-2.19,0.47C835.274,807.18,835.234,806.989,835.194,806.81z"/>
		<path d="M825.624,761.81l1.04,4.89l-8.15,1.74c-0.05-0.689-0.14-1.39-0.27-2.08l4.72-1l-0.609-2.85L825.624,761.81z"/>
		<polygon points="822.354,762.51 817.464,763.55 815.624,754.89 820.454,753.569 		"/>
		<path fill="#FFFFFF" d="M819.904,786.149c-0.42,0.09-0.8,0.351-1.04,0.71c-0.23,0.36-0.32,0.811-0.23,1.23
			c0.19,0.88,1.101,1.45,1.96,1.27c0.41-0.09,0.79-0.35,1.021-0.71c0.24-0.359,0.319-0.81,0.229-1.24c-0.17-0.77-0.819-1.3-1.6-1.3
			C820.134,786.109,820.014,786.12,819.904,786.149z M823.524,787.05c0.189,0.89,0.02,1.78-0.471,2.53
			c-0.479,0.76-1.239,1.27-2.12,1.46c-0.229,0.05-0.46,0.069-0.689,0.069c-1.57,0-2.95-1.109-3.29-2.64
			c-0.19-0.9-0.021-1.8,0.47-2.55s1.25-1.271,2.13-1.45c0.221-0.05,0.45-0.08,0.69-0.08
			C821.814,784.39,823.194,785.51,823.524,787.05z"/>
		<path d="M817.984,766l0.09,0.399l0.17-0.04c0.13,0.69,0.22,1.391,0.27,2.08l-4.96,1.05c-0.01-0.83-0.1-1.659-0.279-2.489
			L817.984,766z"/>
		<path d="M817.984,766l0.18-0.04c0.03,0.13,0.06,0.27,0.08,0.399l-0.17,0.04L817.984,766z"/>
		<path d="M822.964,765.359l-4.72,1c-0.021-0.13-0.05-0.27-0.08-0.399l-0.18,0.04l-0.521-2.45l4.891-1.04L822.964,765.359z"/>
		<polygon points="815.154,752.67 820.044,751.63 820.454,753.569 815.624,754.89 		"/>
		<polygon points="829.444,751.12 820.454,753.569 820.044,751.63 815.154,752.67 815.094,752.449 828.404,748.81 		"/>
		<polygon points="823.895,824.21 824.934,829.1 807.024,832.909 806.504,830.47 806.234,829.199 805.984,828.02 		"/>
		<polygon points="806.504,830.47 807.024,832.909 807.014,832.909 		"/>
		<path fill="#FFFFFF" d="M807.744,799.21c-0.22,0.04-0.45,0.069-0.69,0.069c-1.569,0-2.949-1.12-3.279-2.659
			c-0.19-0.881-0.021-1.78,0.47-2.53c0.49-0.76,1.24-1.271,2.12-1.46c0.229-0.04,0.46-0.07,0.689-0.07c1.58,0,2.96,1.12,3.29,2.66
			c0.181,0.88,0.021,1.78-0.47,2.53S808.624,799.02,807.744,799.21z M805.454,796.27c0.18,0.851,1.08,1.44,1.94,1.26
			c0.42-0.09,0.8-0.35,1.039-0.72c0.23-0.36,0.32-0.81,0.23-1.229c-0.16-0.761-0.84-1.301-1.61-1.301c-0.12,0-0.229,0.011-0.35,0.03
			c-0.41,0.09-0.79,0.35-1.021,0.71C805.444,795.39,805.364,795.84,805.454,796.27z"/>
		<path d="M805.334,786.439v0.01c-0.08,0.021-0.16,0.03-0.24,0.051C805.174,786.479,805.254,786.46,805.334,786.439z"/>
		<path d="M805.094,786.5c-0.109,0.02-0.21,0.05-0.319,0.069v-0.01C804.884,786.54,804.984,786.52,805.094,786.5z"/>
		<path d="M804.074,781.6c3.1-0.74,5.74-2.61,7.479-5.28c1.341-2.06,2.021-4.42,2-6.83l4.96-1.05c0.25,3.72-0.699,7.42-2.77,10.601
			c-2.43,3.729-6.1,6.35-10.41,7.399l-1.04-4.88C804.224,781.58,804.145,781.59,804.074,781.6z"/>
		<path d="M805.334,786.439c-0.08,0.021-0.16,0.04-0.24,0.061c-0.109,0.02-0.21,0.04-0.319,0.06l-1.04-4.88
			c0.109-0.021,0.229-0.05,0.34-0.08c0.07-0.01,0.149-0.02,0.22-0.04L805.334,786.439z"/>
		<polygon points="801.854,987.79 802.384,990.29 799.824,990.29 799.294,987.79 		"/>
		<polygon points="798.774,985.29 801.334,985.29 801.854,987.79 799.294,987.79 		"/>
		<polygon points="797.264,990.29 796.744,987.79 799.294,987.79 799.824,990.29 		"/>
		<polygon points="796.744,987.79 797.264,990.29 426.534,990.29 427.054,987.79 		"/>
		<polygon points="796.214,985.29 798.774,985.29 799.294,987.79 796.744,987.79 		"/>
		<path d="M789.145,817.17l46.149-9.811c0.311,1.74,0.29,3.46-0.02,5.11l-44.48,9.45c-0.38-0.54-0.71-1.12-1-1.71L789.145,817.17z"
			/>
		<path d="M790.384,774.42c2.28,5.21,7.931,8.3,13.69,7.18c-0.11,0.03-0.23,0.06-0.34,0.08l1.04,4.88
			c-1.021,0.19-2.04,0.28-3.051,0.28c-7.22,0-13.79-4.53-16.3-11.37L790.384,774.42z"/>
		<path d="M789.794,820.21c0.29,0.59,0.62,1.17,1,1.71l-0.61,0.13L789.794,820.21z"/>
		<path d="M790.184,822.05v0.01c-0.069,0.01-0.13,0.03-0.199,0.04L790.184,822.05z"/>
		<path fill="#FFFFFF" d="M791.514,791.34c-0.119,0-0.229,0.01-0.34,0.04c-0.42,0.08-0.8,0.34-1.04,0.71
			c-0.239,0.359-0.319,0.81-0.229,1.24c0.18,0.859,1.09,1.439,1.939,1.26c0.431-0.09,0.811-0.351,1.04-0.72
			c0.24-0.36,0.32-0.811,0.23-1.24C792.954,791.89,792.284,791.34,791.514,791.34z M790.804,789.699
			c1.851-0.39,3.62,0.811,3.99,2.591c0.19,0.869,0.021,1.77-0.47,2.52c-0.49,0.76-1.24,1.271-2.12,1.46
			c-0.23,0.05-0.46,0.07-0.69,0.07c-1.58,0-2.97-1.12-3.29-2.67c-0.189-0.86-0.02-1.761,0.471-2.521
			C789.184,790.399,789.934,789.89,790.804,789.699z"/>
		<path d="M789.145,817.17l0.649,3.04c-0.47-0.931-0.83-1.92-1.09-2.95l0.29-0.061C789.044,817.189,789.094,817.18,789.145,817.17z"
			/>
		<path d="M788.704,817.26c-0.01,0-0.01-0.01,0-0.021c0.1-0.01,0.2-0.02,0.29-0.04L788.704,817.26z"/>
		<path d="M788.704,817.239c-0.76,0.12-1.53,0.091-2.3-0.06l2.17-0.46C788.614,816.899,788.654,817.069,788.704,817.239z"/>
		<path d="M787.204,822.29c0.19,0.02,0.37,0.02,0.56,0.02c0.74,0,1.48-0.07,2.221-0.21l-2.7,0.57L787.204,822.29z"/>
		<path d="M807.014,832.909c-1.38,0.29-2.76,0.44-4.13,0.44c-3.76,0-7.45-1.08-10.67-3.18c-3.14-2.03-5.569-4.851-7.1-8.16
			c0.689,0.16,1.39,0.25,2.09,0.28l0.08,0.38l2.7-0.57c0.069-0.01,0.13-0.03,0.199-0.04v-0.01l0.61-0.13
			c1.07,1.6,2.48,2.97,4.14,4.06c3.29,2.13,7.211,2.851,11.04,2.04l0.261,1.18l0.27,1.271L807.014,832.909z"/>
		<path d="M789.794,820.21l0.39,1.84l-0.199,0.05c-0.74,0.14-1.48,0.21-2.221,0.21c-0.189,0-0.369,0-0.56-0.02l-0.96-4.511
			l2.46-0.52C788.964,818.29,789.324,819.279,789.794,820.21z"/>
		<path d="M784.724,773.069l4.891-1.04c0.18,0.841,0.439,1.641,0.77,2.391l-4.96,1.05
			C785.134,774.699,784.904,773.899,784.724,773.069z"/>
		<path d="M783.294,815.92l-1.78-8.41l4.891-1.04l2.17,10.25l-2.17,0.46C785.344,816.979,784.304,816.55,783.294,815.92z"/>
		<path d="M783.684,817.76l2.721-0.58c0.77,0.15,1.54,0.18,2.3,0.06c-0.01,0.011-0.01,0.021,0,0.021l-2.46,0.52l0.96,4.511
			c-0.7-0.03-1.4-0.12-2.09-0.28C784.484,820.67,784.004,819.239,783.684,817.76z"/>
		<path d="M783.294,815.92c1.01,0.63,2.05,1.06,3.11,1.26l-2.721,0.58L783.294,815.92z"/>
		<rect x="780.939" y="802.045" transform="matrix(0.208 0.9781 -0.9781 0.208 1407.3865 -129.1352)" width="4.999" height="5"/>
		<polygon points="781.514,807.51 779.844,807.87 778.814,802.979 780.474,802.62 		"/>
		<path d="M777.084,808.1c0.14,0.01,0.28,0.01,0.42,0.01c0.75,0,1.521-0.08,2.28-0.229l-2.561,0.55
			C777.174,808.319,777.124,808.21,777.084,808.1z"/>
		<path d="M771.194,806.18c1.2,0.8,2.55,1.38,3.979,1.68l0.2,0.96l1.85-0.39c1.45,3.33,3.641,5.979,6.07,7.49l0.39,1.84
			c0.32,1.479,0.801,2.91,1.431,4.25C778.895,820.62,773.254,814.47,771.194,806.18z"/>
		<path d="M777.084,808.1c0.04,0.11,0.09,0.22,0.14,0.33l-1.85,0.39l-0.2-0.96C775.794,808,776.434,808.08,777.084,808.1z"/>
		<polygon points="815.624,754.89 775.154,765.93 774.634,763.479 815.094,752.449 815.154,752.67 		"/>
		<polygon points="771.994,775.13 771.604,773.3 776.494,772.26 776.884,774.1 		"/>
		<path d="M775.884,804.25c0.29,1.35,0.69,2.649,1.2,3.85c-0.65-0.02-1.29-0.1-1.91-0.24l-0.71-3.31L775.884,804.25z"/>
		<path fill="#C1272D" d="M794.794,792.29c-0.37-1.78-2.14-2.98-3.99-2.591c-0.87,0.19-1.62,0.7-2.109,1.45
			c-0.49,0.76-0.66,1.66-0.471,2.521c0.32,1.55,1.71,2.67,3.29,2.67c0.23,0,0.46-0.021,0.69-0.07c0.88-0.189,1.63-0.7,2.12-1.46
			C794.814,794.06,794.984,793.159,794.794,792.29z M806.364,792.63c-0.88,0.189-1.63,0.7-2.12,1.46
			c-0.49,0.75-0.66,1.649-0.47,2.53c0.33,1.539,1.71,2.659,3.279,2.659c0.24,0,0.471-0.029,0.69-0.069
			c0.88-0.19,1.64-0.71,2.13-1.46s0.65-1.65,0.47-2.53c-0.33-1.54-1.71-2.66-3.29-2.66
			C806.824,792.56,806.594,792.59,806.364,792.63z M823.524,787.05c-0.33-1.54-1.71-2.66-3.28-2.66c-0.24,0-0.47,0.03-0.69,0.08
			c-0.88,0.18-1.64,0.7-2.13,1.45s-0.66,1.649-0.47,2.55c0.34,1.53,1.72,2.64,3.29,2.64c0.229,0,0.46-0.02,0.689-0.069
			c0.881-0.19,1.641-0.7,2.12-1.46C823.544,788.83,823.714,787.939,823.524,787.05z M767.354,779.31l18.069-3.84
			c2.51,6.84,9.08,11.37,16.3,11.37c1.011,0,2.03-0.09,3.051-0.28v0.01c0.109-0.02,0.21-0.05,0.319-0.069
			c0.08-0.021,0.16-0.03,0.24-0.051v-0.01c4.311-1.05,7.98-3.67,10.41-7.399c2.07-3.181,3.02-6.881,2.77-10.601l8.15-1.74
			l8.53,40.11c0.04,0.18,0.08,0.37,0.1,0.55l-46.149,9.811c-0.051,0.01-0.101,0.02-0.15,0.029c-0.09,0.021-0.19,0.03-0.29,0.04
			c-0.05-0.17-0.09-0.34-0.13-0.52l-2.17-10.25l-1.04-4.89l-4.891,1.04l-1.659,0.359l-0.07,0.01c-1.63,0.32-3.271,0.011-4.66-0.89
			c-1.4-0.91-2.37-2.32-2.72-3.96L767.354,779.31z"/>
		<polygon points="770.314,767.25 775.154,765.93 776.494,772.26 771.604,773.3 		"/>
		<path d="M774.334,803.93l4.41-0.94l0.07-0.01l1.029,4.891l-0.06,0.01c-0.76,0.149-1.53,0.229-2.28,0.229c-0.14,0-0.28,0-0.42-0.01
			c-0.51-1.2-0.91-2.5-1.2-3.85l-1.42,0.3L774.334,803.93z"/>
		<path d="M766.474,799.18l4.891-1.04c0.35,1.64,1.319,3.05,2.72,3.96c1.39,0.9,3.03,1.21,4.66,0.89l-4.41,0.94l0.13,0.62
			l-3.47,0.74c0.06,0.3,0.13,0.6,0.2,0.89C768.864,804.6,767.104,802.149,766.474,799.18z"/>
		<polygon points="769.794,764.8 774.634,763.479 775.154,765.93 770.314,767.25 		"/>
		<polygon points="774.634,763.479 769.794,764.8 769.634,764.05 774.534,763.01 		"/>
		<path d="M770.994,805.29l3.47-0.74l0.71,3.31c-1.43-0.3-2.779-0.88-3.979-1.68C771.124,805.89,771.054,805.59,770.994,805.29z"/>
		<rect x="764.414" y="779.618" transform="matrix(0.9781 -0.208 0.208 0.9781 -147.3948 176.7876)" width="5" height="19.252"/>
		<path d="M785.424,775.47l-18.069,3.84l-1.04-4.89l5.29-1.12l0.39,1.83l4.89-1.03l-0.39-1.84l40.97-8.71l0.521,2.45l-4.71,1
			c0.18,0.83,0.27,1.659,0.279,2.489l-23.17,4.931c-0.33-0.75-0.59-1.55-0.77-2.391l-4.891,1.04
			C784.904,773.899,785.134,774.699,785.424,775.47z"/>
		<rect x="761.89" y="774.885" transform="matrix(-0.208 -0.9781 0.9781 -0.208 163.0443 1686.7815)" width="4.999" height="5"/>
		<polygon points="760.604,1023.279 759.374,1025.779 756.584,1025.779 757.814,1023.279 		"/>
		<polygon points="759.054,1020.779 761.844,1020.779 760.604,1023.279 757.814,1023.279 		"/>
		<polygon points="770.314,767.25 756.344,771.06 755.824,768.609 769.794,764.8 		"/>
		<polygon points="757.814,1023.279 756.584,1025.779 753.804,1025.779 755.034,1023.279 		"/>
		<polygon points="759.054,1020.779 757.814,1023.279 755.034,1023.279 756.274,1020.779 		"/>
		<polygon points="755.314,766.159 827.364,746.51 828.404,748.81 815.094,752.449 774.634,763.479 774.534,763.01 769.634,764.05 
			769.794,764.8 755.824,768.609 		"/>
		<polygon points="753.414,769.27 755.824,768.609 756.344,771.06 754.064,771.68 753.414,769.31 		"/>
		<polygon points="755.314,766.159 755.824,768.609 753.414,769.27 753.404,769.229 752.895,766.819 		"/>
		<polygon points="736.824,678.14 755.314,766.159 752.895,766.819 734.384,678.66 		"/>
		<polygon points="798.774,985.29 753.414,769.31 754.064,771.68 756.344,771.06 801.334,985.29 		"/>
		<polygon points="752.895,766.819 753.404,769.229 752.754,766.859 		"/>
		<polygon points="753.414,769.31 798.774,985.29 796.214,985.29 731.934,679.169 734.384,678.66 752.895,766.819 752.754,766.859 
			753.404,769.229 753.414,769.27 		"/>
		<path d="M722.504,501.41c-0.649,0.58-1.3,1.15-1.96,1.72l-1.34-2.98l2.28-1.02L722.504,501.41z"/>
		<path d="M827.364,746.51l-108.811-241.7c0.67-0.55,1.33-1.11,1.99-1.68l109.26,242.71L827.364,746.51z"/>
		<path d="M829.804,745.84l-109.26-242.71c0.66-0.57,1.311-1.14,1.96-1.72l109.74,243.77L829.804,745.84z"/>
		<path d="M718.554,504.81l-1.63-3.63l2.28-1.03l1.34,2.98C719.884,503.7,719.224,504.26,718.554,504.81z"/>
		<polygon points="678.384,627.25 716.954,810.949 711.084,812.18 673.824,634.74 		"/>
		<polygon points="673.824,634.74 711.084,812.18 705.214,813.42 669.264,642.229 		"/>
		<polygon points="756.584,1025.779 759.374,1025.779 694.344,1157.52 692.954,1154.699 		"/>
		<polygon points="692.954,1154.699 694.344,1157.52 692.944,1160.35 691.554,1157.529 		"/>
		<polygon points="692.944,1160.35 691.554,1163.17 690.154,1160.35 691.554,1157.529 		"/>
		<polygon points="692.954,1154.699 691.554,1157.529 690.154,1154.71 691.554,1151.88 		"/>
		<polygon points="756.584,1025.779 692.954,1154.699 691.554,1151.88 753.804,1025.779 		"/>
		<polygon points="688.764,1157.529 690.154,1154.71 691.554,1157.529 690.154,1160.35 		"/>
		<polygon points="691.554,1151.88 629.304,1025.779 753.804,1025.779 		"/>
		<path d="M682.614,462.439c0.76,0.23,1.22,0.9,1.12,1.61c-0.13,0.99-1.301,1.7-2.32,1.39c-0.77-0.23-1.23-0.89-1.13-1.61
			c0.11-0.82,0.899-1.47,1.79-1.47C682.254,462.36,682.434,462.39,682.614,462.439z"/>
		<path d="M681.164,467.229c-1.59-0.48-2.62-2.14-2.38-3.86c0.229-1.65,1.55-2.85,3.16-2.85c0.31,0,0.609,0.05,0.91,0.14
			c1.6,0.48,2.619,2.14,2.38,3.85c-0.23,1.65-1.551,2.85-3.16,2.85C681.764,467.36,681.464,467.32,681.164,467.229z M683.734,464.05
			c0.1-0.71-0.36-1.38-1.12-1.61c-0.181-0.05-0.36-0.08-0.54-0.08c-0.891,0-1.68,0.65-1.79,1.47c-0.101,0.72,0.36,1.38,1.13,1.61
			C682.434,465.75,683.604,465.04,683.734,464.05z"/>
		<polygon points="676.574,618.66 678.384,627.25 673.824,634.74 672.014,626.149 		"/>
		<polygon points="670.224,617.58 674.774,610.09 676.574,618.66 672.014,626.149 		"/>
		<polygon points="672.014,626.149 673.824,634.74 669.264,642.229 667.464,633.64 		"/>
		<polygon points="670.224,617.58 672.014,626.149 667.464,633.64 665.664,625.07 		"/>
		<polygon points="628.074,1023.279 755.034,1023.279 753.804,1025.779 629.304,1025.779 		"/>
		<polygon points="626.834,1020.779 756.274,1020.779 755.034,1023.279 628.074,1023.279 		"/>
		<polygon points="629.304,1025.779 691.554,1151.88 690.154,1154.71 626.524,1025.779 		"/>
		<polygon points="628.074,1023.279 629.304,1025.779 626.524,1025.779 625.284,1023.279 		"/>
		<polygon points="626.524,1025.779 690.154,1154.71 688.764,1157.529 623.734,1025.779 		"/>
		<polygon points="623.734,1025.779 622.504,1023.279 625.284,1023.279 626.524,1025.779 		"/>
		<polygon points="625.284,1023.279 624.054,1020.779 626.834,1020.779 628.074,1023.279 		"/>
		<polygon points="622.504,1023.279 621.264,1020.779 624.054,1020.779 625.284,1023.279 		"/>
		<polygon points="617.804,726.81 614.284,721.03 667.464,633.64 669.264,642.229 		"/>
		<path d="M649.964,487.07c-9.34,1.46-21.75,2.26-34.93,2.26v-5c26.939,0,44.6-3.39,46.5-5.73c-0.04,0.05-0.16,0.27-0.16,0.6h5
			C666.374,481.82,664.424,484.81,649.964,487.07z"/>
		<polygon points="610.774,715.26 665.664,625.07 667.464,633.64 614.284,721.03 		"/>
		<polygon points="614.284,732.58 610.774,726.81 614.284,721.03 617.804,726.81 		"/>
		<path d="M615.034,484.33v5c-13.17,0-25.58-0.8-34.92-2.26c-14.46-2.26-16.41-5.25-16.41-7.87h5c0-0.33-0.12-0.55-0.16-0.6
			C570.444,480.939,588.104,484.33,615.034,484.33z"/>
		<polygon points="607.264,732.57 610.774,726.81 614.284,732.58 610.774,738.35 		"/>
		<polygon points="607.254,721.03 610.774,715.26 614.284,721.03 610.774,726.81 		"/>
		<polygon points="603.744,726.8 607.254,721.03 610.774,726.81 607.264,732.57 		"/>
		<polygon points="587.964,1023.279 590.764,1023.279 589.524,1025.779 586.734,1025.779 		"/>
		<polygon points="590.764,1023.279 587.964,1023.279 589.194,1020.779 591.994,1020.779 		"/>
		<polygon points="585.184,1023.279 587.964,1023.279 586.734,1025.779 583.944,1025.779 		"/>
		<polygon points="589.194,1020.779 587.964,1023.279 585.184,1023.279 586.414,1020.779 		"/>
		<path d="M488.824,300.26c0.95-5.22,9.52-11.28,17.47-16.55c0.95-0.63,1.77-1.18,2.15-1.46c21.05-15.67,45.77-26.62,69.68-37.2
			l4.3-1.91l2.03,4.57l-4.31,1.91c-23.65,10.47-48.12,21.3-68.71,36.64c-0.49,0.36-1.28,0.89-2.38,1.62
			c-14.21,9.42-15.45,12.52-15.32,13.42c0.85,1.16,4.57,1.28,6.16,1.33l0.27,0.01c6.04,0.19,12.31-1.2,18.36-2.56
			c28.09-6.28,54.92-18.13,80.87-29.59c4.89-2.16,9.77-4.32,14.65-6.44l1.99,4.59c-4.87,2.11-9.74,4.27-14.62,6.42
			c-26.17,11.56-53.23,23.51-81.73,29.89c-6,1.34-12.12,2.71-18.35,2.71c-0.44,0-0.88-0.01-1.33-0.02l-0.27-0.01
			c-2.9-0.09-7.76-0.25-10.07-3.44C488.854,303.06,488.564,301.709,488.824,300.26z"/>
		<polygon points="555.884,625.07 610.774,715.26 607.254,721.03 554.084,633.649 		"/>
		<polygon points="603.744,726.8 552.284,642.229 554.084,633.649 607.254,721.03 		"/>
		<path d="M554.084,633.649l-4.56-7.49c0.6-2.86,1.21-5.72,1.8-8.58h0.01l4.55,7.49L554.084,633.649z"/>
		<path d="M552.284,642.229l-4.56-7.49c0.6-2.86,1.2-5.72,1.8-8.58l4.56,7.49L552.284,642.229z"/>
		<path d="M510.464,812.18l4.16-19.83c6.51-30.99,13.02-61.98,19.53-92.96c4.52-21.55,9.05-43.1,13.57-64.65l4.56,7.49
			l-35.95,171.19L510.464,812.18z"/>
		<path d="M547.074,462.24c0.25,0.39,0.34,0.87,0.24,1.32c-0.19,0.92-1.13,1.54-2.07,1.34c-0.45-0.09-0.86-0.37-1.11-0.76
			c-0.25-0.38-0.34-0.86-0.24-1.31c0.17-0.8,0.89-1.39,1.71-1.39c0.11,0,0.23,0.01,0.36,0.04
			C546.414,461.58,546.824,461.86,547.074,462.24z"/>
		<path d="M546.774,610.09l4.55,7.49c-0.59,2.86-1.2,5.72-1.8,8.58l-4.55-7.49L546.774,610.09z"/>
		<path d="M549.524,626.16c-0.6,2.86-1.2,5.72-1.8,8.58l-4.56-7.49l1.81-8.58L549.524,626.16z"/>
		<path d="M548.324,461.419c0.48,0.73,0.64,1.6,0.46,2.45c-0.32,1.49-1.66,2.57-3.18,2.57c-0.23,0-0.45-0.02-0.67-0.06
			c-0.86-0.19-1.59-0.69-2.06-1.42c-0.47-0.73-0.63-1.6-0.45-2.45c0.32-1.48,1.65-2.57,3.18-2.57c0.22,0,0.45,0.03,0.67,0.07
			C547.124,460.189,547.854,460.689,548.324,461.419z M547.314,463.56c0.1-0.45,0.01-0.93-0.24-1.32c-0.25-0.38-0.66-0.66-1.11-0.76
			c-0.13-0.03-0.25-0.04-0.36-0.04c-0.82,0-1.54,0.59-1.71,1.39c-0.1,0.45-0.01,0.93,0.24,1.31c0.25,0.39,0.66,0.67,1.11,0.76
			C546.184,465.1,547.124,464.479,547.314,463.56z"/>
		<path d="M543.164,627.25l4.56,7.49c-4.52,21.55-9.05,43.1-13.57,64.65c-6.51,30.98-13.02,61.97-19.53,92.96l-4.16,19.83
			l-5.87-1.23L543.164,627.25z"/>
		<polygon points="523.094,1154.699 586.734,1025.779 589.524,1025.779 524.494,1157.529 		"/>
		<polygon points="521.704,1163.18 520.314,1160.35 521.704,1157.529 523.094,1160.35 		"/>
		<polygon points="586.734,1025.779 523.094,1154.699 521.704,1151.88 583.944,1025.779 		"/>
		<polygon points="524.494,1157.529 523.094,1160.35 521.704,1157.529 523.094,1154.699 		"/>
		<polygon points="583.944,1025.779 521.704,1151.88 459.464,1025.779 		"/>
		<polygon points="521.704,1157.529 520.314,1160.35 518.914,1157.529 520.314,1154.699 		"/>
		<polygon points="520.314,1154.699 521.704,1151.88 523.094,1154.699 521.704,1157.529 		"/>
		<path d="M504.994,504.59c-0.67-0.55-1.33-1.11-1.99-1.68l1.04-2.31l2.28,1.03L504.994,504.59z"/>
		<path d="M503.004,502.91c-0.66-0.57-1.31-1.15-1.96-1.74l0.72-1.6l2.28,1.03L503.004,502.91z"/>
		<polygon points="491.864,679.169 473.284,767.649 471.464,767.27 470.844,767.1 489.414,678.66 		"/>
		<polygon points="470.844,767.1 471.464,767.27 470.824,769.68 470.324,769.55 		"/>
		<polygon points="469.814,772 470.324,769.55 470.824,769.68 470.174,772.1 		"/>
		<polygon points="489.414,678.66 470.844,767.1 468.424,766.449 486.974,678.14 		"/>
		<polygon points="470.844,767.1 470.324,769.55 467.914,768.899 468.424,766.449 		"/>
		<polygon points="467.394,771.35 467.914,768.899 470.324,769.55 469.814,772 		"/>
		<polygon points="459.464,1025.779 458.224,1023.279 585.184,1023.279 583.944,1025.779 		"/>
		<rect x="457.429" y="775.505" transform="matrix(0.9781 0.208 -0.208 0.9781 171.9088 -78.6576)" width="5" height="4.999"/>
		<polygon points="458.224,1023.279 456.994,1020.779 586.414,1020.779 585.184,1023.279 		"/>
		<rect x="447.779" y="787.37" transform="matrix(0.2077 -0.9782 0.9782 0.2077 -410.2356 1073.2598)" width="19.26" height="5"/>
		<polygon points="459.464,1025.779 521.704,1151.88 520.314,1154.699 456.664,1025.779 		"/>
		<polygon points="458.224,1023.279 459.464,1025.779 456.664,1025.779 455.434,1023.279 		"/>
		<polygon points="520.314,1154.699 518.914,1157.529 453.884,1025.779 456.664,1025.779 		"/>
		<polygon points="455.434,1023.279 456.664,1025.779 453.884,1025.779 452.644,1023.279 		"/>
		<polygon points="467.914,768.899 467.394,771.35 454.024,767.76 454.544,765.31 		"/>
		<polygon points="458.224,1023.279 455.434,1023.279 454.204,1020.779 456.994,1020.779 		"/>
		<polygon points="454.204,1020.779 455.434,1023.279 452.644,1023.279 451.414,1020.779 		"/>
		<rect x="449.144" y="771.82" transform="matrix(-0.2074 0.9782 -0.9782 -0.2074 1300.925 494.648)" width="1.881" height="5"/>
		<path d="M439.114,822.83c0.67-1.391,1.19-2.881,1.52-4.45l0.3-1.431c2.6-1.449,4.95-4.27,6.41-7.85l1.61,0.34l0.2-0.95
			c1.5-0.31,2.91-0.93,4.14-1.8C451.434,815.33,445.544,821.72,439.114,822.83z"/>
		<path d="M453.294,806.689c-1.23,0.87-2.64,1.49-4.14,1.8l0.57-2.649l3.59,0.76C453.304,806.63,453.304,806.659,453.294,806.689z"
			/>
		<polygon points="454.024,767.76 449.194,766.46 449.714,764.01 454.544,765.31 		"/>
		<polygon points="449.714,764.01 449.794,763.63 454.684,764.67 454.544,765.31 		"/>
		<polygon points="447.834,772.88 449.194,766.46 454.024,767.76 452.724,773.92 		"/>
		<path d="M449.154,808.489c-0.54,0.12-1.1,0.2-1.66,0.23c0.38-1,0.7-2.061,0.93-3.16l1.3,0.28L449.154,808.489z"/>
		<path d="M449.154,808.489l-0.2,0.95l-1.61-0.34c0.05-0.13,0.1-0.25,0.15-0.38C448.054,808.689,448.614,808.609,449.154,808.489z"
			/>
		<path d="M449.994,804.55l-4.33-0.93c1.59,0.31,3.21-0.011,4.58-0.891c1.4-0.92,2.37-2.32,2.72-3.96l4.89,1.04
			c-0.62,2.9-2.31,5.3-4.56,6.88c0.01-0.03,0.01-0.06,0.02-0.09l-3.59-0.76L449.994,804.55z"/>
		<path d="M444.564,808.51c0.76,0.16,1.52,0.229,2.26,0.229c0.22,0,0.45-0.01,0.67-0.02c-0.05,0.13-0.1,0.25-0.15,0.38
			L444.564,808.51z"/>
		<path d="M445.664,803.62l4.33,0.93l-0.27,1.29l-1.3-0.28c-0.23,1.1-0.55,2.16-0.93,3.16c-0.22,0.01-0.45,0.02-0.67,0.02
			c-0.74,0-1.5-0.069-2.26-0.229l-0.09-0.021l1.04-4.89h0.03L445.664,803.62z"/>
		<polygon points="442.814,808.13 443.854,803.25 445.514,803.6 444.474,808.489 442.814,808.14 		"/>
		<polygon points="438.964,802.21 443.854,803.25 442.814,808.13 437.924,807.1 		"/>
		<path d="M440.634,818.38l-2.28-0.48c0.87-0.149,1.74-0.479,2.58-0.95L440.634,818.38z"/>
		<path d="M434.784,822.77l1.03-4.85l2.26,0.479l-0.98,4.61C436.324,823.01,435.554,822.93,434.784,822.77z"/>
		<path d="M438.334,817.899l-2.59-0.55l2.18-10.25l4.89,1.03v0.01l-1.88,8.81c-0.84,0.471-1.71,0.801-2.58,0.95
			C438.344,817.899,438.344,817.899,438.334,817.899z"/>
		<path d="M435.824,817.88c0.83,0.18,1.68,0.18,2.51,0.02c0.01,0,0.01,0,0.02,0l2.28,0.48c-0.33,1.569-0.85,3.06-1.52,4.45
			c-0.66,0.119-1.32,0.18-1.99,0.18c-0.01,0-0.02,0-0.03,0l0.98-4.61l-2.26-0.479L435.824,817.88z"/>
		<path d="M435.744,817.35l2.59,0.55c-0.83,0.16-1.68,0.16-2.51-0.02l-0.01,0.04l-0.19-0.04
			C435.664,817.699,435.704,817.529,435.744,817.35z"/>
		<path d="M435.814,817.92l-1.03,4.85c0.77,0.16,1.54,0.24,2.31,0.24l-0.06,0.28l-3.5-0.74c0.94-1.391,1.66-2.96,2.09-4.67
			L435.814,817.92z"/>
		<path d="M434.714,772.649l4.89,1.04c-0.17,0.83-0.4,1.63-0.69,2.41l-4.97-1.06C434.284,774.279,434.544,773.479,434.714,772.649z"
			/>
		<path fill="#FFFFFF" d="M431.444,794.5c0.23,0.359,0.61,0.62,1.04,0.71c0.86,0.18,1.75-0.4,1.94-1.261
			c0.09-0.42,0.01-0.869-0.23-1.239c-0.24-0.36-0.62-0.62-1.04-0.71c-0.11-0.021-0.23-0.03-0.34-0.03c-0.77,0-1.45,0.54-1.6,1.3
			C431.124,793.68,431.204,794.14,431.444,794.5z M435.634,791.779c0.49,0.75,0.66,1.65,0.47,2.53c-0.33,1.53-1.71,2.66-3.29,2.66
			c-0.23,0-0.46-0.03-0.69-0.08c-0.88-0.18-1.64-0.7-2.13-1.46c-0.49-0.75-0.65-1.65-0.46-2.53c0.33-1.529,1.71-2.649,3.28-2.649
			c0.24,0,0.47,0.02,0.7,0.069C434.394,790.51,435.144,791.02,435.634,791.779z"/>
		<polygon points="796.744,987.79 427.054,987.79 427.584,985.29 796.214,985.29 		"/>
		<polygon points="424.504,987.79 427.054,987.79 426.534,990.29 423.974,990.29 		"/>
		<polygon points="425.024,985.29 469.814,772 470.174,772.1 470.824,769.68 471.464,767.27 473.284,767.649 427.584,985.29 		"/>
		<polygon points="467.394,771.35 469.814,772 425.024,985.29 422.464,985.29 		"/>
		<polygon points="425.024,985.29 427.584,985.29 427.054,987.79 424.504,987.79 		"/>
		<polygon points="421.944,987.79 424.504,987.79 423.974,990.29 421.414,990.29 		"/>
		<path d="M287.024,382.01c-0.59-1.59-0.82-4.11,1.47-7.11c7.66-9.99,19.93-15.31,30.76-20.01c1.43-0.62,2.86-1.24,4.26-1.86
			c13.2-5.87,27.45-11.86,43.56-18.32c4.88-1.95,9.91-4.1,14.78-6.17c12.85-5.48,26.14-11.15,39.55-14.65l1.26,4.83
			c-13.05,3.42-26.17,9.01-38.85,14.42c-4.89,2.08-9.95,4.24-14.88,6.22c-16.05,6.43-30.24,12.39-43.39,18.24
			c-1.41,0.63-2.85,1.25-4.3,1.88c-10.77,4.67-21.91,9.5-28.78,18.47c-1.09,1.42-0.84,2.09-0.76,2.31c0.59,1.56,4.12,3.37,8.21,4.2
			c15.38,3.13,31.55,2.06,47.2,1.02c4.74-0.31,9.65-0.63,14.45-0.83c4.4-0.19,8.8-0.35,13.21-0.51c20.14-0.75,40.97-1.51,61.16-4.56
			l0.75,4.95c-20.47,3.08-41.44,3.86-61.73,4.6c-4.4,0.16-8.79,0.33-13.18,0.51c-4.74,0.2-9.62,0.52-14.33,0.83
			c-7.97,0.53-16.08,1.07-24.19,1.07c-8.15,0-16.3-0.54-24.33-2.18C296.604,388.89,288.874,386.959,287.024,382.01z"/>
		<polygon points="424.504,987.79 421.944,987.79 422.464,985.29 425.024,985.29 		"/>
		<path d="M420.204,782.22c3.18,0.64,6.42,0.01,9.15-1.76c2.06-1.34,3.64-3.21,4.59-5.42l4.97,1.06c-1.28,3.51-3.66,6.49-6.84,8.56
			c-2.85,1.851-6.11,2.811-9.43,2.811c-1.04,0-2.07-0.09-3.1-0.29l1.04-4.87C420.454,782.279,420.334,782.25,420.204,782.22z"/>
		<path d="M420.174,782.21c0.01,0.01,0.02,0.01,0.03,0.01C420.194,782.22,420.184,782.22,420.174,782.21z"/>
		<path d="M420.174,782.21c0.01,0.01,0.02,0.01,0.03,0.01c0.13,0.03,0.25,0.06,0.38,0.09l-1.04,4.87c-0.11-0.01-0.23-0.03-0.34-0.06
			c-0.07-0.011-0.14-0.03-0.21-0.051l1.04-4.88C420.084,782.199,420.124,782.21,420.174,782.21z"/>
		<path d="M419.544,787.199c-0.11-0.02-0.23-0.05-0.34-0.079c0.11,0.029,0.23,0.05,0.34,0.06V787.199z"/>
		<path d="M419.204,787.12c-0.07-0.011-0.14-0.03-0.21-0.04v-0.011C419.064,787.09,419.134,787.109,419.204,787.12z"/>
		<path d="M439.114,822.83c-3.25,6.77-10.18,11.14-17.71,11.14c-1.35,0-2.72-0.14-4.1-0.44l1.04-4.89
			c5.99,1.28,11.92-1.32,15.19-6.09l3.5,0.74l0.06-0.28c0.01,0,0.02,0,0.03,0C437.794,823.01,438.454,822.949,439.114,822.83z"/>
		<path fill="#FFFFFF" d="M416.934,798.149c0.86,0.181,1.76-0.399,1.94-1.27c0.09-0.41,0.01-0.87-0.23-1.23
			c-0.23-0.359-0.61-0.62-1.04-0.71c-0.1-0.02-0.21-0.04-0.33-0.04c-0.78,0-1.45,0.55-1.61,1.311c-0.09,0.41-0.01,0.859,0.23,1.229
			C416.124,797.8,416.504,798.06,416.934,798.149z M417.274,793.189c0.23,0,0.46,0.021,0.69,0.07c0.88,0.18,1.63,0.7,2.12,1.46
			c0.49,0.75,0.66,1.65,0.47,2.53c-0.32,1.529-1.7,2.649-3.28,2.649c-0.24,0-0.47-0.02-0.71-0.069c-0.86-0.181-1.62-0.7-2.11-1.46
			c-0.49-0.75-0.66-1.65-0.47-2.53C414.314,794.31,415.694,793.189,417.274,793.189z"/>
		<path d="M412.774,776.939c1.72,2.65,4.34,4.521,7.4,5.271c-0.05,0-0.09-0.011-0.14-0.021l-1.04,4.88
			c-4.31-1.06-7.98-3.67-10.41-7.41c-2.07-3.18-3.02-6.869-2.77-10.6l4.96,1.061C410.754,772.529,411.434,774.88,412.774,776.939z"
			/>
		<polygon points="408.684,755.58 409.164,753.3 409.214,753.13 449.714,764.01 449.194,766.46 		"/>
		<polygon points="408.684,755.58 406.864,764.17 401.974,763.13 403.844,754.279 		"/>
		<path d="M411.054,767.62l-4.71-1l0.52-2.45l40.97,8.71l-0.39,1.84l4.89,1.04l0.39-1.84l5.28,1.12l-1.04,4.89l-18.05-3.83
			c0.29-0.78,0.52-1.58,0.69-2.41l-4.89-1.04c-0.17,0.83-0.43,1.63-0.77,2.391l-23.17-4.92
			C410.784,769.29,410.874,768.449,411.054,767.62z"/>
		<path d="M406.344,766.62l4.71,1c-0.18,0.829-0.27,1.67-0.28,2.5l-4.96-1.061c0.05-0.689,0.14-1.38,0.27-2.07l0.17,0.04
			L406.344,766.62z"/>
		<path d="M406.164,766.58l0.18,0.04l-0.09,0.409l-0.17-0.04C406.104,766.85,406.134,766.72,406.164,766.58z"/>
		<polygon points="404.274,752.26 409.164,753.3 408.684,755.58 403.844,754.279 		"/>
		<path fill="#FFFFFF" d="M402.484,788.029c-0.19,0.891,0.37,1.761,1.26,1.95c0.92,0.2,1.76-0.399,1.94-1.26
			c0.19-0.89-0.37-1.76-1.25-1.95c-0.13-0.02-0.24-0.03-0.35-0.03C403.314,786.739,402.644,787.279,402.484,788.029z
			 M404.784,785.09c1.82,0.39,2.97,2.18,2.59,3.99c-0.34,1.54-1.72,2.659-3.29,2.659c-0.23,0-0.46-0.029-0.68-0.069
			c-1.83-0.391-2.99-2.181-2.61-3.99c0.33-1.54,1.72-2.66,3.29-2.66C404.314,785.02,404.554,785.04,404.784,785.09z"/>
		<path d="M406.864,764.17l-0.52,2.45l-0.18-0.04c-0.03,0.14-0.06,0.27-0.08,0.409l-4.72-1l0.61-2.859L406.864,764.17z"/>
		<polygon points="399.394,829.729 400.434,824.84 418.344,828.64 417.304,833.529 		"/>
		<path d="M398.694,762.439l3.28,0.69l-0.61,2.859l4.72,1c-0.13,0.69-0.22,1.381-0.27,2.07l-8.16-1.729L398.694,762.439z"/>
		<polygon points="409.214,753.13 394.834,749.27 395.874,746.959 468.424,766.449 467.914,768.899 454.544,765.31 454.684,764.67 
			449.794,763.63 449.714,764.01 		"/>
		<path d="M395.874,746.959l-2.45-0.65l109.58-243.4c0.66,0.57,1.32,1.13,1.99,1.68L395.874,746.959z"/>
		<polygon points="395.874,746.959 394.834,749.27 392.384,748.61 393.424,746.31 		"/>
		<polygon points="394.834,749.27 409.214,753.13 409.164,753.3 404.274,752.26 403.844,754.279 393.794,751.58 		"/>
		<rect x="393.23" y="761.865" transform="matrix(-0.9781 -0.208 0.208 -0.9781 623.7748 1594.3348)" width="4.999" height="5"/>
		<polygon points="394.834,749.27 393.794,751.58 391.344,750.93 392.384,748.61 		"/>
		<path d="M503.004,502.91l-109.58,243.4l-2.45-0.66l110.07-244.48C501.694,501.76,502.344,502.34,503.004,502.91z"/>
		<polygon points="393.424,746.31 392.384,748.61 389.944,747.95 390.974,745.649 		"/>
		<polygon points="391.344,750.93 388.894,750.27 389.944,747.95 392.384,748.61 		"/>
		<path d="M433.534,822.55l-44.48-9.46c-0.31-1.65-0.33-3.37-0.02-5.11l46.59,9.9C435.194,819.59,434.474,821.159,433.534,822.55z"
			/>
		<path fill="#C1272D" d="M436.104,794.31c0.19-0.88,0.02-1.78-0.47-2.53c-0.49-0.76-1.24-1.27-2.12-1.46
			c-0.23-0.05-0.46-0.069-0.7-0.069c-1.57,0-2.95,1.12-3.28,2.649c-0.19,0.88-0.03,1.78,0.46,2.53c0.49,0.76,1.25,1.28,2.13,1.46
			c0.23,0.05,0.46,0.08,0.69,0.08C434.394,796.97,435.774,795.84,436.104,794.31z M417.274,793.189c-1.58,0-2.96,1.12-3.29,2.65
			c-0.19,0.88-0.02,1.78,0.47,2.53c0.49,0.76,1.25,1.279,2.11,1.46c0.24,0.05,0.47,0.069,0.71,0.069c1.58,0,2.96-1.12,3.28-2.649
			c0.19-0.88,0.02-1.78-0.47-2.53c-0.49-0.76-1.24-1.28-2.12-1.46C417.734,793.21,417.504,793.189,417.274,793.189z M437.924,807.1
			l-2.18,10.25c-0.04,0.18-0.08,0.35-0.12,0.53l-46.59-9.9c0.03-0.18,0.06-0.37,0.1-0.55l8.52-40.1l8.16,1.729
			c-0.25,3.73,0.7,7.42,2.77,10.6c2.43,3.74,6.1,6.351,10.41,7.41v0.011c0.07,0.01,0.14,0.029,0.21,0.04
			c0.11,0.029,0.23,0.06,0.34,0.079v-0.02c1.03,0.2,2.06,0.29,3.1,0.29c3.32,0,6.58-0.96,9.43-2.811c3.18-2.069,5.56-5.05,6.84-8.56
			l18.05,3.83l-4,18.84c-0.35,1.64-1.32,3.04-2.72,3.96c-1.37,0.88-2.99,1.2-4.58,0.891l-0.12-0.021h-0.03l-1.66-0.35l-4.89-1.04
			L437.924,807.1z M407.374,789.08c0.38-1.811-0.77-3.601-2.59-3.99c-0.23-0.05-0.47-0.07-0.7-0.07c-1.57,0-2.96,1.12-3.29,2.66
			c-0.38,1.81,0.78,3.6,2.61,3.99c0.22,0.04,0.45,0.069,0.68,0.069C405.654,791.739,407.034,790.62,407.374,789.08z"/>
		<polygon points="389.134,807.43 384.244,806.399 392.764,766.29 397.654,767.33 		"/>
		<path d="M386.844,807.51l2.19,0.47c-0.31,1.74-0.29,3.46,0.02,5.11l-3.25-0.69L386.844,807.51z"/>
		<path d="M399.394,829.729c-10.61-2.26-17.41-12.72-15.15-23.33l4.89,1.03c-0.04,0.18-0.07,0.37-0.1,0.55l-2.19-0.47l-1.04,4.89
			l3.25,0.69c1.02,5.689,5.38,10.47,11.38,11.75L399.394,829.729z"/>
	</g>
	<g>
		<path fill="none" stroke="#000000" stroke-width="5" stroke-miterlimit="10" d="M568.244,199.37
			c10.29-12.02,22.52-22.82,36.33-35.5c27.189-24.97,56.01-48.64,85.34-71.04c9.9-7.57,21.59-15.84,33.58-19.7
			c2.55-0.82,8.21-2.42,10.87-0.56c2.99,2.1-1.021,9.18-2.33,11.02c-2.45,3.47-8.88,13.54-8.96,13.66
			c-16.55,25.93-34.87,52.38-51.49,78.93c-4.12,6.58-8.189,13.21-11.71,20.14"/>
		<path fill="none" stroke="#000000" stroke-width="5" stroke-miterlimit="10" d="M704.024,213.03c13.26-4.13,26.05-5.64,39.97-8.6
			c31.189-6.62,63.04-9.26,94.82-11.12c5.33-0.31,13.02-0.8,17.3,3.21c5.319,5-18.181,12.79-21.32,13.77
			c-16.77,5.27-33.59,10.46-50.439,15.44c-14.681,4.33-29.48,8.46-43.45,14.78"/>
		<path fill="none" stroke="#000000" stroke-width="5" stroke-miterlimit="10" d="M798.224,263.78
			c33.21,11.38,68.62,13.94,102.051,24.5c1.819,0.57,12.109,3.73,11.02,7.43c-2.99,10.11-19.91,9.94-28.1,10.53
			c-16.65,1.19-33.32,1.4-49.96,2.81"/>
		<path fill="none" stroke="#000000" stroke-width="5" stroke-miterlimit="10" d="M655.354,253.169
			c-6.61,6.58-14.83,11.25-21.86,17.33c-3.03,2.63-13.54,11.13-9.6,15.73c4.939,5.75,15.25,0.01,20.6-2.1
			c18.77-7.41,38.979-15.18,56.37-25.47"/>
		<path fill="none" stroke="#000000" stroke-width="5" stroke-miterlimit="10" d="M515.354,242.919
			c-5.66-37.27-10.21-74.78-11.94-112.46c-0.98-21.1-0.65-42.18-0.04-63.28c-0.18,2.74-0.3,5.49-0.43,8.24
			c0.31-6.14-0.27-13.72,2.28-19.48c5.08-11.47,12.17,12.14,13.14,15.33c9.91,32.72,11.94,67.2,19.14,100.53
			c3.42,15.82,7.72,31.64,14.57,46.36"/>
		<path fill="none" stroke="#000000" stroke-width="5" stroke-miterlimit="10" d="M448.934,294.53
			c-18.96-34.08-35.92-68.62-52.31-103.98c-1.47-3.18-2.7-7.86-1.48-11.46c4.4-12.99,24.82,10.21,27.96,13.57
			c9.72,10.4,19.35,21.36,29.36,31.68c10.14,10.45,21.26,19.91,31.23,30.54"/>
		<path fill="none" stroke="#000000" stroke-miterlimit="10" d="M685.234,464.51c-0.23,1.65-1.551,2.85-3.16,2.85
			c-0.311,0-0.61-0.04-0.91-0.13c-1.59-0.48-2.62-2.14-2.38-3.86c0.229-1.65,1.55-2.85,3.16-2.85c0.31,0,0.609,0.05,0.91,0.14
			C684.454,461.14,685.474,462.8,685.234,464.51z"/>
		<path fill="none" stroke="#000000" stroke-miterlimit="10" d="M542.874,464.959c-0.47-0.73-0.63-1.6-0.45-2.45
			c0.32-1.48,1.65-2.57,3.18-2.57c0.22,0,0.45,0.03,0.67,0.07c0.85,0.18,1.58,0.68,2.05,1.41c0.48,0.73,0.64,1.6,0.46,2.45
			c-0.32,1.49-1.66,2.57-3.18,2.57c-0.23,0-0.45-0.02-0.67-0.06C544.074,466.189,543.344,465.689,542.874,464.959z"/>
	</g>
</g>
<path d="M769.104,324.6c5.381,16.34,8.281,33.791,8.281,51.9c0,91.869-74.74,166.61-166.6,166.61
	c-91.871,0-166.621-74.741-166.621-166.61c0-18.721,3.1-36.721,8.82-53.529c1.42,0.91,2.879,1.809,4.369,2.699
	c-5.309,15.99-8.189,33.08-8.189,50.83c0,89.119,72.5,161.61,161.621,161.61c89.109,0,161.6-72.491,161.6-161.61
	c0-17.141-2.68-33.67-7.65-49.189C766.225,326.42,767.684,325.51,769.104,324.6z"/>
<path d="M769.104,324.6c-1.42,0.91-2.879,1.82-4.369,2.711c-1.25-3.9-2.641-7.74-4.18-11.51c1.469-0.91,2.889-1.82,4.27-2.75
	C766.395,316.83,767.824,320.689,769.104,324.6z"/>
<path d="M760.555,315.801c1.539,3.77,2.93,7.609,4.18,11.51c-4.49,2.719-9.301,5.359-14.41,7.939
	c-0.039-3.961-0.34-8.59-0.73-12.859l0.92-0.08l-0.059-0.66C754.014,319.73,757.375,317.779,760.555,315.801z"/>
<path d="M750.455,321.65l0.059,0.66l-0.92,0.08c-0.01-0.09-0.01-0.182-0.02-0.271C749.875,321.971,750.164,321.811,750.455,321.65z"
	/>
<path d="M749.484,310.35l0.971,11.301c-0.291,0.16-0.58,0.32-0.881,0.469c-0.279-2.969-0.6-5.75-0.91-7.988l-0.49-3.672
	L749.484,310.35z"/>
<path d="M750.324,335.25c0.01,0.34,0.01,0.68,0.01,1.01c0,25.35-6.641,49.26-18.68,67.33c-12.541,18.82-29.461,29.18-47.65,29.18
	c-18.18,0-35.1-10.359-47.65-29.18c-8.068-12.109-13.709-26.84-16.539-42.869c1.859-0.031,3.73-0.061,5.59-0.111l-0.311-12
	c-2.299,0.061-4.59,0.1-6.869,0.131c-0.361-4.1-0.541-8.27-0.541-12.48c0-0.99-0.01-1.789-0.029-2.459l11.99-1.041
	c0.02,0.881,0.039,1.99,0.039,3.5c0,46.6,24.371,84.51,54.32,84.51c29.961,0,54.33-37.91,54.33-84.51
	c0-3.699-0.289-8.439-0.689-12.84l11.32-0.98c-2.25,1.201-4.57,2.381-6.961,3.541l5.26,10.789
	C748.295,336.27,749.324,335.76,750.324,335.25z"/>
<path d="M749.594,322.391c0.391,4.27,0.691,8.898,0.73,12.859c-1,0.51-2.029,1.02-3.061,1.52l-5.26-10.789
	c2.391-1.16,4.711-2.34,6.961-3.541L749.594,322.391z"/>
<path d="M749.574,322.119c0.01,0.09,0.01,0.182,0.02,0.271l-0.629,0.049C749.174,322.34,749.375,322.23,749.574,322.119z"/>
<path d="M749.574,322.119c-0.199,0.111-0.4,0.221-0.609,0.32l-11.32,0.98c-0.26-2.811-0.57-5.49-0.871-7.67l-0.568-4.25
	l11.969-1.041l0.49,3.672C748.975,316.369,749.295,319.15,749.574,322.119z"/>
<path d="M629.635,332.289c-0.051-2.158-0.061-2.609,0.439-6.309l0.061-0.451l-0.08-4.85l106.15-9.18l0.568,4.25
	c0.301,2.18,0.611,4.859,0.871,7.67l-108,9.34C629.645,332.59,629.635,332.439,629.635,332.289z"/>
<path d="M625.094,348.609l0.311,12c-1.859,0.051-3.73,0.08-5.59,0.111c-0.701-3.92-1.23-7.92-1.59-11.98
	C620.504,348.709,622.795,348.67,625.094,348.609z"/>
<path d="M618.225,348.74c0.359,4.061,0.889,8.061,1.59,11.98c-2.391,0.029-4.77,0.049-7.131,0.049c-2.24,0-4.52-0.02-6.789-0.049
	c0.689-3.92,1.219-7.92,1.57-11.98C611.045,348.779,614.635,348.779,618.225,348.74z"/>
<path d="M617.635,332.57c-0.062-2.723,0.139-5.975,0.359-9.049l0.07-1.812l11.99-1.029l0.08,4.85l-0.061,0.451
	c-0.5,3.699-0.49,4.15-0.439,6.309c0,0.15,0.01,0.301,0.01,0.471l-11.99,1.041C617.654,333.33,617.645,332.93,617.635,332.57z"/>
<path d="M608.014,333.891l-11.979-1.041c0-0.15,0.01-0.289,0.01-0.43c0.049-2.16,0.059-2.609-0.441-6.32l-0.02-0.16l-0.549-5.219
	l12.43,0.797l0.303,3.939c0.119,3.572,0.336,4.553,0.277,7.232C608.035,333.039,608.023,333.439,608.014,333.891z"/>
<path d="M601.363,348.641c2.031,0.049,4.061,0.08,6.102,0.1c-0.352,4.061-0.881,8.061-1.57,11.98c-1.6-0.021-3.211-0.051-4.811-0.09
	L601.363,348.641z"/>
<path d="M596.035,332.85l-107.99-9.33c0.24-2.709,0.529-5.289,0.818-7.42l0.99-4.48l105.182,9.102l0.549,5.219l0.02,0.16
	c0.5,3.711,0.49,4.16,0.441,6.32C596.045,332.561,596.035,332.699,596.035,332.85z"/>
<path d="M489.854,311.619l-0.99,4.48c-0.289,2.131-0.578,4.711-0.818,7.42l-11.721-1.02c-0.07-0.029-0.15-0.07-0.221-0.109
	c0.271-3.031,0.602-5.871,0.91-8.16l0.08-0.471l0.701-3.18L489.854,311.619z"/>
<path d="M484.854,326.699c-2.939-1.379-5.779-2.779-8.529-4.199l11.721,1.02c-0.41,4.41-0.701,9.16-0.701,12.871
	c0,46.6,24.371,84.51,54.33,84.51c29.951,0,54.32-37.91,54.32-84.51c0-1.541,0.02-2.66,0.041-3.541l11.979,1.041
	c-0.01,0.68-0.02,1.5-0.02,2.5c0,4.16-0.18,8.279-0.529,12.35c-2.041-0.02-4.07-0.051-6.102-0.1l-0.279,11.99
	c1.6,0.039,3.211,0.068,4.811,0.09c-2.83,16.08-8.48,30.859-16.57,43c-12.551,18.809-29.471,29.18-47.65,29.18
	c-18.189,0-35.109-10.371-47.65-29.18c-12.039-18.07-18.68-41.99-18.68-67.33c0-0.311,0-0.631,0.01-0.951
	c1.441,0.711,2.91,1.42,4.4,2.121L484.854,326.699z"/>
<path d="M484.854,326.699l-5.1,10.861c-1.49-0.701-2.959-1.41-4.4-2.121c0.041-3.98,0.34-8.66,0.74-12.959l0.23,0.02
	C479.074,323.92,481.914,325.32,484.854,326.699z"/>
<path d="M476.324,322.5l-0.23-0.02c0-0.031,0-0.061,0.01-0.09C476.174,322.43,476.254,322.471,476.324,322.5z"/>
<path d="M476.104,322.391c-0.01,0.029-0.01,0.059-0.01,0.09l-2.01-0.17l0.08-0.92C474.805,321.721,475.455,322.061,476.104,322.391z
	"/>
<path d="M474.084,322.311l2.01,0.17c-0.4,4.299-0.699,8.979-0.74,12.959c-6.439-3.16-12.439-6.41-18-9.77
	c1.281-3.881,2.721-7.699,4.291-11.439c3.92,2.439,8.09,4.82,12.52,7.16L474.084,322.311z"/>
<path d="M457.375,311.51c1.379,0.91,2.799,1.82,4.27,2.721c-1.57,3.74-3.01,7.559-4.291,11.439c-1.49-0.891-2.949-1.789-4.369-2.699
	C454.305,319.08,455.773,315.26,457.375,311.51z"/>
<rect x="386.268" y="1193.015" fill="none" width="455.341" height="56.996"/>
<text transform="matrix(1 0 0 1 386.2676 1222.0527)" font-family="'Copperplate-Bold'" font-size="66">S U K H O V A</text>
<line stroke="#000000" stroke-width="3" stroke-miterlimit="10" x1="297.712" y1="1250.011" x2="930.164" y2="1250.012"/>
<line stroke="#000000" stroke-width="3" stroke-miterlimit="10" x1="383.329" y1="1271.01" x2="838.67" y2="1271.01"/>
<rect x="489.45" y="1289.015" fill="none" width="267.071" height="39.992"/>
<text transform="matrix(1 0 0 1 489.4497 1318.0537)" font-family="'Copperplate-Bold'" font-size="66">stylist</text>
</svg>
